<svg width="288" height="288" viewBox="0 0 288 288" fill="none" xmlns="http://www.w3.org/2000/svg">
<g clip-path="url(#clip0_1_2)">
<path d="M143.5 62.7258C168.8 62.7258 193.042 72.3268 210.898 89.383C228.751 106.436 238.758 129.539 238.759 153.604C238.759 194.097 214.896 227.204 190.652 250.363C178.561 261.912 166.46 270.902 157.38 277.006C152.842 280.056 149.065 282.382 146.428 283.941C145.185 284.676 144.195 285.239 143.5 285.629C142.805 285.239 141.815 284.676 140.572 283.941C137.935 282.382 134.158 280.056 129.62 277.006C120.539 270.902 108.438 261.912 96.3474 250.363C72.1031 227.204 48.2419 194.097 48.2419 153.604L48.2488 152.477C48.5561 128.819 58.5277 106.169 76.1013 89.383C93.9577 72.3267 118.2 62.7259 143.5 62.7258Z" fill="url(#paint0_linear_1_2)" stroke="#A11C1C" stroke-width="5"/>
<path d="M142.99 233.535C185.502 233.535 219.965 199.301 219.965 157.07C219.965 114.84 185.502 80.6055 142.99 80.6055C100.478 80.6055 66.0156 114.84 66.0156 157.07C66.0156 199.301 100.478 233.535 142.99 233.535Z" fill="white"/>
</g>
<defs>
<linearGradient id="paint0_linear_1_2" x1="143.5" y1="61.1077" x2="143.5" y2="287.177" gradientUnits="userSpaceOnUse">
<stop stop-color="#EC725F"/>
<stop offset="1" stop-color="#DB3217"/>
</linearGradient>
<clipPath id="clip0_1_2">
<rect width="288" height="288" fill="white"/>
</clipPath>
</defs>
</svg>
